<svg width="1200" height="1200" viewBox="0 0 1200 1200" fill="none" xmlns="http://www.w3.org/2000/svg">
<path d="M861.2 493.6C861.2 493.6 958.4 660.9 937.1 943.8C937.1 943.8 855.2 986.4 799.9 920.8C799.9 920.8 880.9 732.8 846.4 526.1L861.2 493.6Z" fill="#999999"/>
<path d="M800.8 947.4C787.7 950.6 764.7 970 764.7 986.1C763.1 1011.9 782.8 994.2 795.9 1007.1C815.6 1026.5 804.1 1068.4 827.1 1087.8C883 1133 930.6 1020 937.2 981.3" fill="#999999"/>
<path d="M940 914.3C940 914.3 951 958.3 935.1 994.5C935.1 994.5 842.7 1029.2 783.6 953.5C783.6 953.5 785.3 926.9 810.5 888.6C810.4 888.6 862.1 932.9 940 914.3Z" fill="black"/>
<path d="M247.8 937.4C247.8 937.4 328.3 980 382.6 914.4C382.6 914.4 303 726.4 336.9 519.7L322.4 487.2C322.3 487.2 226.9 654.5 247.8 937.4Z" fill="#999999"/>
<path d="M381.7 941C394.6 944.2 417.2 963.6 417.2 979.7C418.8 1005.5 399.4 987.8 386.5 1000.7C367.1 1020.1 378.4 1062 355.8 1081.4C300.9 1126.6 254.1 1013.6 247.7 974.9" fill="#999999"/>
<path d="M249.8 988.1C249.8 988.1 340.5 1022.8 398.6 947.1C398.6 947.1 396.9 920.5 372.2 882.2C372.2 882.2 321.4 926.4 244.9 907.9" fill="black"/>
<path d="M487.2 847.3C487.2 847.3 489.6 936.3 437.7 984.1C437.7 984.1 485.9 950.7 513.7 953.4L521.9 955.9L523.1 956.6C523.1 956.6 535.4 912.9 523.8 880.9C523.9 880.9 494.6 859.4 487.2 847.3Z" fill="#1A1A1A"/>
<path d="M467.7 964.8C467.7 964.8 513.7 936 533.1 962.4C533.1 962.4 556.7 1042.6 578 1060L559.6 1094.6C559.6 1094.6 529.4 1063.7 491.8 1063.4C491.8 1063.4 434.5 1070.5 402.9 1126.7C402.9 1126.7 395.6 1121.1 394.3 1119.5C394.3 1119.5 384.9 1050.4 414.2 999.5C414.3 999.5 418.7 993.7 467.7 964.8Z" fill="#999999"/>
<path d="M528 902.3C536.5 919.1 584.8 868 578.1 830.2C578.1 830.2 562.2 836.6 496.4 791.4C496.4 791.4 457.7 845.8 484.3 881.9C484.3 881.9 487.6 872.3 488.4 862.8C488.4 862.8 523.9 874.6 528 902.3Z" fill="#4D4D4D"/>
<path d="M425.5 1014.3C425.5 1014.3 429.2 1059.7 409.9 1085.6C409.9 1085.6 386.1 1041.3 425.5 1014.3Z" fill="#1A1A1A"/>
<path d="M402.8 1126C402.8 1126 423.2 1073.7 499.8 1060C499.8 1060 536.6 1064 560.3 1091.6C560.3 1091.6 550.2 1116.8 549.4 1137.9V1139.3C549.4 1139.2 469.2 1171.8 402.8 1126Z" fill="#1A1A1A"/>
<path d="M424.9 1018.7C424.9 1018.7 399.4 1038.4 413.7 1079.6C413.8 1079.6 428.1 1056.4 424.9 1018.7Z" fill="black"/>
<path d="M649.4 882C649.4 882 625.3 929.6 653.4 980.4C653.4 980.4 667 965.8 688.7 976.7C688.7 976.7 718.8 993.3 729 993C729 993 681.6 919.8 691.2 856.8C691.1 856.9 673 856.7 649.4 882Z" fill="#1A1A1A"/>
<path d="M644.5 896.9C627.8 902.3 604.8 851.5 602.5 830.2C602.5 830.2 630.4 820.5 700 792.9C700 792.9 722 851.8 689.8 880.1C689.8 880.1 689.2 876.7 689 867.7C689 867.7 654.6 871.1 644.5 896.9Z" fill="#4D4D4D"/>
<path d="M714.6 968.6C714.6 968.6 790.3 961.3 788.1 1133.8C788.1 1133.8 764.7 1151.7 735.7 1150.8C735.7 1150.8 731.8 1148.2 709.8 1159.7C709.8 1159.7 626.7 1195.3 546.3 1141.7C546.3 1141.7 532.1 1031.9 657.5 970C657.5 970 676.3 959.8 707.4 982.5C707.4 982.5 718.2 988 724.8 988.1" fill="#999999"/>
<path d="M742.8 1032.7C742.8 1032.7 737.8 1085 768 1110.1C768 1110.1 786.3 1055.1 742.8 1032.7Z" fill="#1A1A1A"/>
<path d="M546.3 1142C546.3 1142 565.3 1095.4 630.5 1065.2C630.5 1065.2 693.8 1082.5 735.2 1152L693 1165.8C693 1165.7 602.4 1191.3 546.3 1142Z" fill="#1A1A1A"/>
<path d="M742.2 1047.9C742.2 1047.9 765.8 1062.9 757.8 1099.7C757.8 1099.7 743.1 1082.8 742.2 1047.9Z" fill="black"/>
<path d="M359.7 476.9L474.3 454.2H687.4L825 476.9C825 476.9 539.6 513.7 359.7 476.9Z" fill="#1A1A1A"/>
<path d="M358.1 476.2H823.4C823.4 476.2 838.4 831.2 590.7 831.2C334.4 831.2 358.1 476.2 358.1 476.2Z" fill="#999999"/>
<path d="M860.4 635.6L860.3 498.6C859.7 475.3 835.8 475.3 835.8 475.3H822.1L819.2 494.8C556.9 602.9 364 494.6 364 494.6L356.9 475.3H341.7C341.7 475.3 317.8 475.3 317.2 498.6L317.1 635.6C317.1 635.6 315 652.9 331 657.4C375.3 681.4 598.9 809.1 849.3 656.5C851.1 655.7 852.7 654.8 853.9 653.7C861.8 646.9 860.4 635.6 860.4 635.6Z" fill="black"/>
<path d="M552.4 696.4H530.2V674.2C530.2 671.8 528.2 669.8 525.8 669.8C523.3 669.8 521.4 671.8 521.4 674.2V700.8C521.4 703.3 523.4 705.2 525.8 705.2H552.4C554.9 705.2 556.8 703.2 556.8 700.8C556.9 698.4 554.9 696.4 552.4 696.4Z" fill="#E30303"/>
<path d="M658.9 563.4H632.3C629.9 563.4 627.9 565.4 627.9 567.8C627.9 570.2 629.9 572.2 632.3 572.2H654.5V594.4C654.5 596.9 656.5 598.8 658.9 598.8C661.4 598.8 663.3 596.8 663.3 594.4V567.8C663.3 565.4 661.4 563.4 658.9 563.4Z" fill="#E30303"/>
<path d="M525.8 598.9C528.2 598.9 530.2 596.9 530.2 594.5V572.3H552.4C554.9 572.3 556.8 570.3 556.8 567.9C556.8 565.5 554.8 563.5 552.4 563.5H525.8C523.3 563.5 521.4 565.5 521.4 567.9V594.5C521.4 596.9 523.4 598.9 525.8 598.9Z" fill="#E30303"/>
<path d="M658.9 669.8C656.4 669.8 654.5 671.8 654.5 674.2V696.4H632.3C629.9 696.4 627.9 698.4 627.9 700.8C627.9 703.3 629.9 705.2 632.3 705.2H658.9C661.4 705.2 663.3 703.2 663.3 700.8V674.2C663.3 671.8 661.4 669.8 658.9 669.8Z" fill="#E30303"/>
<path d="M539.1 592.4V676.7C539.1 682.9 544.2 687.9 550.5 687.9H634.1C640.4 687.9 645.5 682.9 645.5 676.7V592.4C645.5 586.2 640.4 581.2 634.1 581.2H550.5C544.3 581.1 539.1 586.1 539.1 592.4ZM592.4 594.5C597.2 594.5 601 597.9 601 601.6C601 607.6 599.1 619.1 596.6 637.6C596.1 641.7 594.8 643.2 592.4 643.2C589.9 643.2 588.7 641.7 588.2 637.6C585.8 619.3 583.8 607.7 583.8 601.6C583.9 597.9 587.6 594.5 592.4 594.5ZM592.4 652C599.7 652 605.7 657 605.7 663.1C605.7 669.2 599.8 674.2 592.4 674.2C585.1 674.2 579.1 669.2 579.1 663.1C579.1 657 585 652 592.4 652Z" fill="#E30303"/>
<path d="M602.5 176.9H582.1V91.1001H602.5V176.9Z" fill="black"/>
<path d="M592.4 33C568.9 33 549.8 52.1 549.8 75.6C549.8 99.1 568.9 118.2 592.4 118.2C615.9 118.2 635 99.1 635 75.6C634.9 52.1 615.9 33 592.4 33Z" fill="black"/>
<path d="M416.9 285.8C418.6 322.1 445.3 327.4 445.3 327.4V241.4C445.3 241.3 415.2 249.5 416.9 285.8Z" fill="black"/>
<path d="M741.9 234.9V320.9C741.9 320.9 766.2 315.6 767.9 279.3C769.5 243.1 741.9 234.9 741.9 234.9Z" fill="black"/>
<path d="M430.9 378.5L443 197.5C443 197.5 554.9 109.7 741.9 195.2L759 371.2L744.5 385C744.5 385 619.5 422.8 430.9 378.5Z" fill="#4D4D4D"/>
<path d="M730.3 261.8C715.3 230.2 679.1 227.4 649.8 235.9C631.2 241.6 615.4 245.6 596.4 246.3C576.8 245.6 560.6 241.7 541.5 235.9C511.4 227.5 474.2 230.3 458.8 261.8C444.1 289.8 456 337.5 470 363.5L594.5 388.8L719.4 363.5C733 337.5 744.6 289.9 730.3 261.8Z" fill="white"/>
<path d="M444.9 375.5L429.2 375.9C429.2 375.9 580.8 580.6 759.1 373.6H743.1V378.8C743.1 378.8 603.3 418.6 445.5 379.6L444.9 375.5Z" fill="#999999"/>
<path d="M726.1 293.8C726.1 292.1 725.8 290.4 725.3 288.7C725.2 288.2 725.1 287.8 725 287.3C724.9 287.1 724.9 287 724.8 286.9C724.4 285.5 723.8 284.1 723 282.8C722.7 282.3 722.4 281.8 722.2 281.3C721.4 280.1 720.5 279 719.7 278C719.3 277.6 718.9 277.2 718.5 276.8C717.6 275.8 716.5 274.9 715.4 274.1C715 273.8 714.6 273.5 714 273.2C712.8 272.4 711.5 271.8 710.2 271.1C709.7 270.8 709.2 270.7 708.6 270.4C707.2 269.8 705.7 269.3 704.2 269C703.6 268.8 703 268.7 702.3 268.5C700.6 268.2 698.9 267.9 697.1 267.8C696.3 267.7 695.7 267.6 694.9 267.6C692.9 267.5 690.8 267.6 688.7 267.9C687.8 268 686.9 268.1 686 268.3C684 268.6 682.2 269.1 680.2 269.7C679.4 270 678.6 270.2 677.8 270.5C676.4 271 675 271.6 673.7 272.3C665 276.5 658.5 283.2 655.2 290.8C654.6 292 654.2 293.3 653.8 294.5L653.7 294.6C653 296.8 652.7 299.2 652.6 301.5C652.6 302.3 652.6 302.9 652.8 303.7C652.8 305.4 653.1 307.1 653.6 308.8C653.6 309.1 653.8 309.6 653.9 309.9C654 310.2 654.1 310.4 654.2 310.7C654.7 312.1 655.3 313.4 656.1 314.7C656.4 315.2 656.7 315.7 656.9 316.2C657.7 317.4 658.6 318.5 659.4 319.5C659.8 319.8 660.2 320.3 660.6 320.7C661.6 321.6 662.7 322.5 663.8 323.3C664.2 323.6 664.6 323.9 665.2 324.2C666.4 325 667.7 325.6 669 326.3C669.5 326.5 670.1 326.7 670.6 327C672 327.6 673.5 328 675 328.4C675.6 328.6 676.3 328.7 677 328.8C678.6 329.1 680.3 329.4 682.1 329.6C682.9 329.6 683.6 329.7 684.4 329.7C686.4 329.7 688.5 329.6 690.6 329.4C691.5 329.3 692.5 329.1 693.5 329C695.2 328.7 697 328.2 698.8 327.6C699.8 327.3 700.8 326.9 701.7 326.6L701.9 326.5C703.4 325.9 704.9 325.2 706.2 324.5C714.1 320.4 720.1 314.2 723.4 307.3C724 306 724.5 304.8 724.9 303.4C725.7 301 726.1 298.6 726.3 296.2C726.2 295.3 726.2 294.6 726.1 293.8ZM462.1 296.1C462.3 298.6 462.7 300.9 463.5 303.3C463.9 304.7 464.4 305.9 465 307.2C468.3 314.2 474.3 320.4 482.2 324.4C483.6 325.2 485 325.8 486.5 326.4L486.7 326.5C487.6 326.8 488.6 327.2 489.6 327.5C491.4 328.1 493.2 328.5 494.9 328.9C495.9 329.1 496.9 329.2 497.8 329.3C499.9 329.6 502 329.6 504 329.6C504.8 329.6 505.5 329.5 506.3 329.5C508.1 329.3 509.8 329.1 511.4 328.7C512.1 328.6 512.8 328.4 513.4 328.3C514.9 327.9 516.4 327.5 517.8 326.9C518.3 326.6 518.9 326.4 519.4 326.2C520.8 325.5 522 324.8 523.2 324.1C523.7 323.8 524.1 323.5 524.6 323.2C525.7 322.4 526.8 321.5 527.8 320.6C528.2 320.2 528.6 319.8 529 319.4C529.8 318.4 530.7 317.3 531.5 316.1C531.8 315.6 532.1 315.1 532.3 314.6C533.1 313.3 533.7 312 534.2 310.6C534.3 310.3 534.4 310.1 534.5 309.8C534.6 309.5 534.8 309 534.8 308.7C535.3 307 535.6 305.3 535.6 303.6C535.8 302.8 535.8 302.2 535.8 301.4C535.7 299.1 535.4 296.7 534.7 294.5L534.6 294.4C534.3 293.1 533.8 291.9 533.2 290.7C529.9 283.1 523.4 276.4 514.7 272.2C513.4 271.5 512.1 270.9 510.6 270.4C509.8 270.1 509 269.8 508.2 269.6C506.2 269 504.4 268.5 502.4 268.2C501.5 267.9 500.6 267.9 499.7 267.8C497.6 267.5 495.5 267.4 493.5 267.5C492.7 267.5 492.1 267.6 491.3 267.7C489.5 267.8 487.8 268 486.1 268.4C485.4 268.6 484.8 268.7 484.2 268.9C482.7 269.2 481.2 269.7 479.8 270.3C479.2 270.6 478.7 270.7 478.2 271C476.8 271.7 475.6 272.4 474.4 273.1C473.9 273.4 473.5 273.8 473 274C471.9 274.8 470.8 275.7 469.9 276.7C469.5 277 469.1 277.5 468.7 277.9C467.9 278.9 467 280 466.2 281.2C465.9 281.7 465.6 282.2 465.4 282.7C464.6 284 464 285.3 463.6 286.8C463.5 287 463.5 287.1 463.4 287.2C463.2 287.7 463.1 288.1 463.1 288.6C462.6 290.3 462.3 292 462.3 293.7C462.1 294.6 462.1 295.3 462.1 296.1Z" fill="#999999"/>
<path d="M726.1 293.8C726.1 292.1 725.8 290.4 725.3 288.7C725.2 288.2 725.1 287.8 725 287.3C724.9 287.1 724.9 287 724.8 286.9C724.4 285.5 723.8 284.1 723 282.8C722.7 282.3 722.4 281.8 722.2 281.3C721.4 280.1 720.5 279 719.7 278C719.3 277.6 718.9 277.2 718.5 276.8C717.6 275.8 716.5 274.9 715.4 274.1C715 273.8 714.6 273.5 714 273.2C712.8 272.4 711.5 271.8 710.2 271.1C709.7 270.8 709.2 270.7 708.6 270.4C707.2 269.8 705.7 269.3 704.2 269C703.6 268.8 703 268.7 702.3 268.5C700.6 268.2 698.9 267.9 697.1 267.8C696.3 267.7 695.7 267.6 694.9 267.6C692.9 267.5 690.8 267.6 688.7 267.9C687.8 268 686.9 268.1 686 268.3C684 268.6 682.2 269.1 680.2 269.7C679.4 270 678.6 270.2 677.8 270.5C676.4 271 675 271.6 673.7 272.3C665 276.5 658.5 283.2 655.2 290.8C654.6 292 654.2 293.3 653.8 294.5L653.7 294.6C653 296.8 652.7 299.2 652.6 301.5C652.6 302.3 652.6 302.9 652.8 303.7C652.8 305.4 653.1 307.1 653.6 308.8C653.6 309.1 653.8 309.6 653.9 309.9C654 310.2 654.1 310.4 654.2 310.7C654.7 312.1 655.3 313.4 656.1 314.7C656.4 315.2 656.7 315.7 656.9 316.2C657.7 317.4 658.6 318.5 659.4 319.5C659.8 319.8 660.2 320.3 660.6 320.7C661.6 321.6 662.7 322.5 663.8 323.3C664.2 323.6 664.6 323.9 665.2 324.2C666.4 325 667.7 325.6 669 326.3C669.5 326.5 670.1 326.7 670.6 327C672 327.6 673.5 328 675 328.4C675.6 328.6 676.3 328.7 677 328.8C678.6 329.1 680.3 329.4 682.1 329.6C682.9 329.6 683.6 329.7 684.4 329.7C686.4 329.7 688.5 329.6 690.6 329.4C691.5 329.3 692.5 329.1 693.5 329C695.2 328.7 697 328.2 698.8 327.6C699.8 327.3 700.8 326.9 701.7 326.6L701.9 326.5C703.4 325.9 704.9 325.2 706.2 324.5C714.1 320.4 720.1 314.2 723.4 307.3C724 306 724.5 304.8 724.9 303.4C725.7 301 726.1 298.6 726.3 296.2C726.2 295.3 726.2 294.6 726.1 293.8ZM462.1 296.1C462.3 298.6 462.7 300.9 463.5 303.3C463.9 304.7 464.4 305.9 465 307.2C468.3 314.2 474.3 320.4 482.2 324.4C483.6 325.2 485 325.8 486.5 326.4L486.7 326.5C487.6 326.8 488.6 327.2 489.6 327.5C491.4 328.1 493.2 328.5 494.9 328.9C495.9 329.1 496.9 329.2 497.8 329.3C499.9 329.6 502 329.6 504 329.6C504.8 329.6 505.5 329.5 506.3 329.5C508.1 329.3 509.8 329.1 511.4 328.7C512.1 328.6 512.8 328.4 513.4 328.3C514.9 327.9 516.4 327.5 517.8 326.9C518.3 326.6 518.9 326.4 519.4 326.2C520.8 325.5 522 324.8 523.2 324.1C523.7 323.8 524.1 323.5 524.6 323.2C525.7 322.4 526.8 321.5 527.8 320.6C528.2 320.2 528.6 319.8 529 319.4C529.8 318.4 530.7 317.3 531.5 316.1C531.8 315.6 532.1 315.1 532.3 314.6C533.1 313.3 533.7 312 534.2 310.6C534.3 310.3 534.4 310.1 534.5 309.8C534.6 309.5 534.8 309 534.8 308.7C535.3 307 535.6 305.3 535.6 303.6C535.8 302.8 535.8 302.2 535.8 301.4C535.7 299.1 535.4 296.7 534.7 294.5L534.6 294.4C534.3 293.1 533.8 291.9 533.2 290.7C529.9 283.1 523.4 276.4 514.7 272.2C513.4 271.5 512.1 270.9 510.6 270.4C509.8 270.1 509 269.8 508.2 269.6C506.2 269 504.4 268.5 502.4 268.2C501.5 267.9 500.6 267.9 499.7 267.8C497.6 267.5 495.5 267.4 493.5 267.5C492.7 267.5 492.1 267.6 491.3 267.7C489.5 267.8 487.8 268 486.1 268.4C485.4 268.6 484.8 268.7 484.2 268.9C482.7 269.2 481.2 269.7 479.8 270.3C479.2 270.6 478.7 270.7 478.2 271C476.8 271.7 475.6 272.4 474.4 273.1C473.9 273.4 473.5 273.8 473 274C471.9 274.8 470.8 275.7 469.9 276.7C469.5 277 469.1 277.5 468.7 277.9C467.9 278.9 467 280 466.2 281.2C465.9 281.7 465.6 282.2 465.4 282.7C464.6 284 464 285.3 463.6 286.8C463.5 287 463.5 287.1 463.4 287.2C463.2 287.7 463.1 288.1 463.1 288.6C462.6 290.3 462.3 292 462.3 293.7C462.1 294.6 462.1 295.3 462.1 296.1Z" fill="url(#paint0_linear_330_1351)"/>
<path opacity="0.75" d="M708.6 270.3L659.5 319.4C659.9 319.7 660.3 320.2 660.7 320.6L710.3 270.9C709.7 270.7 709.2 270.5 708.6 270.3ZM718.5 276.7L669 326.3C669.5 326.5 670.1 326.7 670.6 327L719.7 277.9C719.3 277.5 718.9 277.1 718.5 276.7ZM722.2 281.2L675 328.4C675.6 328.6 676.3 328.7 677 328.8L723.1 282.7C722.8 282.3 722.5 281.8 722.2 281.2ZM725 287.3C724.9 287.1 724.9 287 724.8 286.9L682 329.7C682.8 329.7 683.5 329.8 684.3 329.8L725.3 288.8C725.3 288.2 725.2 287.8 725 287.3ZM726.1 293.8L690.5 329.4C691.4 329.3 692.4 329.1 693.4 329L726.2 296.2C726.2 295.3 726.2 294.6 726.1 293.8ZM701.8 326.5C703.3 325.9 704.8 325.2 706.1 324.5L723.3 307.3C723.9 306 724.4 304.8 724.8 303.4L701.8 326.5ZM714 273.1L663.8 323.3C664.2 323.6 664.6 323.9 665.2 324.2L715.4 274C714.9 273.8 714.5 273.4 714 273.1ZM702.3 268.3L656 314.6C656.3 315.1 656.6 315.6 656.8 316.1L704.1 268.8C703.6 268.7 703 268.5 702.3 268.3ZM694.9 267.5L653.6 308.8C653.6 309.1 653.8 309.6 653.9 309.9C654 310.2 654.1 310.4 654.2 310.7L697.1 267.8C696.3 267.6 695.7 267.5 694.9 267.5ZM686 268.3L652.7 301.5C652.7 302.3 652.7 302.9 652.9 303.7L688.7 267.9C687.8 267.9 686.9 268 686 268.3ZM673.8 272.2L655.3 290.7C654.7 291.9 654.3 293.2 653.9 294.4L677.8 270.4C676.4 271 675 271.6 673.8 272.2ZM478.2 271L527.8 320.7C528.2 320.3 528.6 319.9 529 319.5L479.9 270.4C479.2 270.5 478.7 270.7 478.2 271ZM468.7 277.9L517.8 327C518.3 326.7 518.9 326.5 519.4 326.3L469.9 276.7C469.4 277.1 469.1 277.5 468.7 277.9ZM465.3 282.8L511.4 328.9C512.1 328.8 512.8 328.6 513.4 328.5L466.2 281.3C465.9 281.8 465.5 282.3 465.3 282.8ZM463 288.7L504 329.7C504.8 329.7 505.5 329.6 506.3 329.6L463.5 286.8C463.4 287 463.4 287.1 463.3 287.2C463.1 287.8 463.1 288.2 463 288.7ZM462.1 296.1L494.9 328.9C495.9 329.1 496.9 329.2 497.8 329.3L462.2 293.7C462.1 294.6 462.1 295.3 462.1 296.1ZM463.5 303.3C463.9 304.7 464.4 305.9 465 307.2L482.2 324.4C483.6 325.2 485 325.8 486.5 326.4L463.5 303.3ZM473 274L523.2 324.2C523.7 323.9 524.1 323.6 524.6 323.3L474.4 273.1C473.8 273.4 473.4 273.8 473 274ZM484.2 268.8L531.5 316.1C531.8 315.6 532.1 315.1 532.3 314.6L486 268.3C485.4 268.5 484.8 268.7 484.2 268.8ZM491.2 267.7L534.1 310.6C534.2 310.3 534.3 310.1 534.4 309.8C534.5 309.5 534.7 309 534.7 308.7L493.4 267.4C492.7 267.5 492 267.6 491.2 267.7ZM499.6 267.8L535.4 303.6C535.6 302.8 535.6 302.2 535.6 301.4L502.3 268.2C501.4 268 500.6 267.9 499.6 267.8ZM510.5 270.5L534.4 294.5C534.1 293.2 533.6 292 533 290.8L514.5 272.3C513.3 271.6 511.9 271 510.5 270.5Z" fill="black"/>
<defs>
<linearGradient id="paint0_linear_330_1351" x1="594.2" y1="264.263" x2="594.2" y2="337.53" gradientUnits="userSpaceOnUse">
<stop stop-opacity="0"/>
<stop offset="1" stop-opacity="0.5"/>
</linearGradient>
</defs>
</svg>
